<svg width="53" height="53" viewBox="0 0 53 53" fill="none" xmlns="http://www.w3.org/2000/svg">
<g clip-path="url(#clip0_223_79)">
<path d="M26.4404 0.957031C19.3847 0.957031 18.4974 0.989531 15.7252 1.11303C12.9529 1.24303 11.0647 1.67853 9.41043 2.32203C7.67523 2.97469 6.10353 3.99847 4.80518 5.32178C3.48268 6.62079 2.45903 8.19231 1.80543 9.92703C1.16193 11.578 0.72318 13.4695 0.59643 16.232C0.47293 19.0108 0.44043 19.8948 0.44043 26.9603C0.44043 34.0193 0.47293 34.9033 0.59643 37.6755C0.72643 40.4445 1.16193 42.3328 1.80543 43.987C2.47168 45.6965 3.35893 47.146 4.80518 48.5923C6.24818 50.0385 7.69768 50.929 9.40718 51.592C11.0647 52.2355 12.9497 52.6743 15.7187 52.801C18.4942 52.9245 19.3782 52.957 26.4404 52.957C33.5027 52.957 34.3834 52.9245 37.1589 52.801C39.9247 52.671 41.8194 52.2355 43.4737 51.592C45.2078 50.939 46.7783 49.9153 48.0757 48.5923C49.5219 47.146 50.4092 45.6965 51.0754 43.987C51.7157 42.3328 52.1544 40.4445 52.2844 37.6755C52.4079 34.9033 52.4404 34.0193 52.4404 26.957C52.4404 19.8948 52.4079 19.0108 52.2844 16.2353C52.1544 13.4695 51.7157 11.578 51.0754 9.92703C50.4219 8.19226 49.3983 6.62073 48.0757 5.32178C46.7777 3.99798 45.2059 2.97413 43.4704 2.32203C41.8129 1.67853 39.9214 1.23978 37.1557 1.11303C34.3802 0.989531 33.4994 0.957031 26.4339 0.957031H26.4437H26.4404ZM24.1102 5.64353H26.4437C33.3857 5.64353 34.2079 5.66628 36.9477 5.79303C39.4827 5.90678 40.8607 6.33253 41.7772 6.68678C42.9894 7.15803 43.8572 7.72353 44.7672 8.63353C45.6772 9.54353 46.2394 10.408 46.7107 11.6235C47.0682 12.5368 47.4907 13.9148 47.6044 16.4498C47.7312 19.1895 47.7572 20.0118 47.7572 26.9505C47.7572 33.8893 47.7312 34.7148 47.6044 37.4545C47.4907 39.9895 47.0649 41.3643 46.7107 42.2808C46.2938 43.4097 45.6285 44.4305 44.7639 45.2675C43.8539 46.1775 42.9894 46.7398 41.7739 47.211C40.8639 47.5685 39.4859 47.991 36.9477 48.108C34.2079 48.2315 33.3857 48.2608 26.4437 48.2608C19.5017 48.2608 18.6762 48.2315 15.9364 48.108C13.4014 47.991 12.0267 47.5685 11.1102 47.211C9.9808 46.7948 8.95909 46.1307 8.12018 45.2675C7.25487 44.4291 6.58853 43.4074 6.17018 42.2775C5.81593 41.3643 5.39018 39.9863 5.27643 37.4513C5.15293 34.7115 5.12693 33.8893 5.12693 26.944C5.12693 20.002 5.15293 19.183 5.27643 16.4433C5.39343 13.9083 5.81593 12.5303 6.17343 11.6138C6.64468 10.4015 7.21018 9.53378 8.12018 8.62378C9.03018 7.71378 9.89468 7.15153 11.1102 6.68028C12.0267 6.32278 13.4014 5.90028 15.9364 5.78328C18.3349 5.67278 19.2644 5.64028 24.1102 5.63703V5.64353ZM40.3212 9.95953C39.9115 9.95953 39.5057 10.0402 39.1272 10.197C38.7487 10.3538 38.4047 10.5836 38.115 10.8734C37.8253 11.1631 37.5955 11.507 37.4387 11.8856C37.2819 12.2641 37.2012 12.6698 37.2012 13.0795C37.2012 13.4893 37.2819 13.895 37.4387 14.2735C37.5955 14.652 37.8253 14.996 38.115 15.2857C38.4047 15.5754 38.7487 15.8052 39.1272 15.962C39.5057 16.1188 39.9115 16.1995 40.3212 16.1995C41.1487 16.1995 41.9422 15.8708 42.5274 15.2857C43.1125 14.7006 43.4412 13.907 43.4412 13.0795C43.4412 12.2521 43.1125 11.4585 42.5274 10.8734C41.9422 10.2882 41.1487 9.95953 40.3212 9.95953ZM26.4437 13.606C24.6727 13.5784 22.9138 13.9034 21.2696 14.562C19.6254 15.2206 18.1286 16.1998 16.8664 17.4424C15.6042 18.6851 14.6019 20.1664 13.9177 21.8001C13.2335 23.4339 12.8811 25.1874 12.8811 26.9587C12.8811 28.7299 13.2335 30.4834 13.9177 32.1172C14.6019 33.7509 15.6042 35.2323 16.8664 36.4749C18.1286 37.7176 19.6254 38.6967 21.2696 39.3553C22.9138 40.014 24.6727 40.3389 26.4437 40.3113C29.9489 40.2566 33.2921 38.8257 35.7516 36.3276C38.2111 33.8294 39.5896 30.4643 39.5896 26.9587C39.5896 23.453 38.2111 20.0879 35.7516 17.5897C33.2921 15.0916 29.9489 13.6607 26.4437 13.606ZM26.4437 18.2893C28.7425 18.2893 30.9472 19.2025 32.5727 20.828C34.1982 22.4535 35.1114 24.6582 35.1114 26.957C35.1114 29.2559 34.1982 31.4605 32.5727 33.0861C30.9472 34.7116 28.7425 35.6248 26.4437 35.6248C24.1449 35.6248 21.9402 34.7116 20.3147 33.0861C18.6891 31.4605 17.7759 29.2559 17.7759 26.957C17.7759 24.6582 18.6891 22.4535 20.3147 20.828C21.9402 19.2025 24.1449 18.2893 26.4437 18.2893Z" fill="#142C5D"/>
</g>
<defs>
<clipPath id="clip0_223_79">
<rect width="52" height="52" fill="white" transform="translate(0.44043 0.957031)"/>
</clipPath>
</defs>
</svg>
