<svg xmlns="http://www.w3.org/2000/svg" id="Calque_1" data-name="Calque 1" viewBox="0 0 653.89 526.3">
  <defs>
    <style>
      .cls-1 {
        fill: #f9a7be;
        stroke-width: 0px;
      }
    </style>
  </defs>
  <path class="cls-1" d="m0,442.83l80.12,22.56c22.34-12.69,46.85-28.75,71.89-49.1,53.71-43.63,89.87-90.66,113.45-127.73,6.11-10.7,14.55-26.1,23.72-45.07,21.7-44.94,36.2-73.9,40.06-107.81,2.26-19.85,3.54-59.93-19.34-109.6-8.14,25.33-16.27,50.65-24.41,75.98-11.51,29.78-23.02,59.56-34.54,89.33-15.89,35-41.71,81.4-83.35,128.02C107.24,387.01,41.54,423.77,0,442.83Z"/>
  <path class="cls-1" d="m203.84,245.74l33.77-60.17s-44.82-84.42-54.03-159.48c-1.51,3.25-2.97,6.59-4.38,10.02-11.53,28.01-16.87,55.26-18.79,79.79.55,13.78,2.34,29.92,6.59,47.57,8.78,36.43,24.36,64.11,36.84,82.27Z"/>
  <path class="cls-1" d="m245.49.03c-25.13-.87-52.79,16.07-52.79,16.07l14.76,47.15c10.99-14.84,25.7-18.06,34.11-18.58v.18s1.71-.24,4.53-.24c1.36.06,2.14.17,2.14.17v-.12c8.86.4,24.77,3.38,36.75,18.37l15.16-47.25S271.73-.38,245.49.03Z"/>
  <path class="cls-1" d="m294.71,277.97c-11.51,17.96-23.02,35.92-34.54,53.88,0,0,124.79,154.51,285.04,194.45l108.68-50.93c-39.59.25-132.62-4.58-227.32-64.32-70.74-44.63-111.54-100.41-131.86-133.07Z"/>
</svg>