<svg width="36" height="45" viewBox="0 0 36 45" fill="none" xmlns="http://www.w3.org/2000/svg">
<path d="M19.6471 6.42919V42.7794C19.6485 43.0198 19.6023 43.258 19.5113 43.4805C19.4203 43.7029 19.2862 43.9052 19.1167 44.0756C18.9472 44.2461 18.7457 44.3814 18.5238 44.4737C18.3019 44.566 18.0639 44.6135 17.8235 44.6135C17.5832 44.6135 17.3452 44.566 17.1233 44.4737C16.9014 44.3814 16.6999 44.2461 16.5304 44.0756C16.3609 43.9052 16.2268 43.7029 16.1358 43.4805C16.0448 43.258 15.9986 43.0198 16 42.7794V6.42919L2.70285 20.5579C2.53884 20.737 2.33936 20.88 2.1171 20.9778C1.89484 21.0756 1.65465 21.1262 1.41181 21.1262C1.16896 21.1262 0.928773 21.0756 0.70651 20.9778C0.484247 20.88 0.284772 20.737 0.120764 20.5579C-0.222408 20.1844 -0.412842 19.6956 -0.412842 19.1884C-0.412842 18.6812 -0.222408 18.1925 0.120764 17.819L16.5325 0.37874C16.6965 0.199635 16.896 0.0566139 17.1182 -0.0412314C17.3405 -0.139077 17.5807 -0.189606 17.8235 -0.189606C18.0664 -0.189606 18.3066 -0.139077 18.5289 -0.0412314C18.7511 0.0566139 18.9506 0.199635 19.1146 0.37874L35.5264 17.819C35.8685 18.1923 36.0583 18.6802 36.0583 19.1866C36.0583 19.693 35.8685 20.1809 35.5264 20.5542C35.3624 20.7333 35.1629 20.8764 34.9406 20.9742C34.7184 21.072 34.4782 21.1226 34.2353 21.1226C33.9925 21.1226 33.7523 21.072 33.53 20.9742C33.3077 20.8764 33.1083 20.7333 32.9443 20.5542L19.6471 6.43288V6.42919Z" fill="#FFEBF1"/>
</svg>
